<?xml version="1.0" encoding="UTF-8" standalone="no"?>
<!-- Created with Inkscape (http://www.inkscape.org/) -->

<svg
   width="4000"
   height="3000"
   viewBox="0 0 1058.3334 793.75"
   version="1.1"
   id="svg1"
   xml:space="preserve"
   inkscape:version="1.3 (0e150ed6c4, 2023-07-21)"
   sodipodi:docname="logo.svg"
   xmlns:inkscape="http://www.inkscape.org/namespaces/inkscape"
   xmlns:sodipodi="http://sodipodi.sourceforge.net/DTD/sodipodi-0.dtd"
   xmlns="http://www.w3.org/2000/svg"
   xmlns:svg="http://www.w3.org/2000/svg"><sodipodi:namedview
     id="namedview1"
     pagecolor="#ffffff"
     bordercolor="#999999"
     borderopacity="1"
     inkscape:showpageshadow="2"
     inkscape:pageopacity="0"
     inkscape:pagecheckerboard="0"
     inkscape:deskcolor="#d1d1d1"
     inkscape:document-units="mm"
     showgrid="true"
     inkscape:zoom="0.125"
     inkscape:cx="2044"
     inkscape:cy="1688"
     inkscape:window-width="1920"
     inkscape:window-height="1056"
     inkscape:window-x="0"
     inkscape:window-y="24"
     inkscape:window-maximized="1"
     inkscape:current-layer="layer1" /><defs
     id="defs1"><linearGradient
       id="linearGradient2"
       inkscape:label="gradient"><stop
         style="stop-color:#add9ff;stop-opacity:1;"
         offset="0"
         id="stop1" /><stop
         style="stop-color:#ffffff;stop-opacity:1;"
         offset="1"
         id="stop2" /></linearGradient><inkscape:path-effect
       effect="fillet_chamfer"
       id="path-effect1"
       is_visible="true"
       lpeversion="1"
       nodesatellites_param="F,0,0,1,0,26.458333,0,1 @ F,0,0,1,0,26.458333,0,1 @ F,0,0,1,0,26.458333,0,1 @ F,0,0,1,0,26.458333,0,1"
       radius="100"
       unit="px"
       method="auto"
       mode="F"
       chamfer_steps="1"
       flexible="false"
       use_knot_distance="true"
       apply_no_radius="true"
       apply_with_radius="true"
       only_selected="false"
       hide_knots="false" /><linearGradient
       id="swatch14"
       inkscape:label="gradient"><stop
         style="stop-color:#ffffff;stop-opacity:1;"
         offset="0"
         id="stop17" /><stop
         style="stop-color:#ffffff;stop-opacity:1;"
         offset="1"
         id="stop18" /></linearGradient></defs><g
     inkscape:label="Layer 1"
     inkscape:groupmode="layer"
     id="layer1"><path
       style="opacity:0.8;fill:#1b598e;fill-opacity:1;stroke:#ffffff;stroke-width:2.29658;stroke-linecap:round;stroke-linejoin:round;stroke-opacity:0.84;paint-order:markers fill stroke"
       id="rect1"
       width="1146.2242"
       height="573.11212"
       x="88.346214"
       y="110.31894"
       ry="1.4210515"
       inkscape:label="background"
       inkscape:path-effect="#path-effect1"
       sodipodi:type="rect"
       d="M 114.80455,110.31894 H 1208.1121 a 26.458333,26.458333 45 0 1 26.4584,26.45833 v 520.19546 a 26.458333,26.458333 135 0 1 -26.4584,26.45833 H 114.80455 A 26.458333,26.458333 45 0 1 88.346214,656.97273 l 0,-520.19546 a 26.458333,26.458333 135 0 1 26.458336,-26.45833 z"
       transform="matrix(0.72347488,0,0,1.0005978,50.618176,-0.23725188)" /><path
       d="m 826.54371,416.24875 h -38.7595 v 38.76747 h -38.7675 v -38.76747 h -38.7555 v -38.7555 h 38.7555 v -38.7595 h 38.7675 v 38.7595 h 38.7595 v 38.7555 m -141.43108,0 h -38.75551 v 38.76747 h -38.75949 v -38.76747 h -38.7595 v -38.7555 h 38.7595 v -38.7595 h 38.75949 v 38.7595 h 38.75551 v 38.7555"
       fill="#ffffff"
       id="path5-3"
       style="fill:#ffffff;fill-opacity:0.843137;stroke-width:3.98678" /><path
       id="path6"
       style="fill:#ffffff;fill-opacity:0.84273;stroke-width:1.23668"
       inkscape:label="Lock"
       d="m 374.00734,192.82386 c -57.96184,0 -105.11758,47.15582 -105.11758,105.11731 v 55.65019 h -18.55007 c -10.24461,0 -18.55007,8.30593 -18.55007,18.5505 v 182.70265 27.53154 c 0,5.12243 2.07639,9.75964 5.43345,13.11658 0.83921,0.83918 1.75825,1.59846 2.74501,2.26518 2.96068,2.00018 6.52985,3.1683 10.37161,3.1683 H 497.6754 c 2.56119,0 5.00127,-0.51892 7.22061,-1.45773 3.32899,-1.40806 6.16104,-3.76014 8.16113,-6.72073 2.00019,-2.96063 3.1684,-6.52986 3.1684,-10.37156 V 372.14186 c 0,-10.24457 -8.30558,-18.5505 -18.55014,-18.5505 h -18.55016 v -55.65019 c 0,-6.02219 -0.53151,-11.91897 -1.51336,-17.66339 -0.0603,-0.35448 -0.12596,-0.70655 -0.19015,-1.0598 0,-0.007 0,-0.0137 0,-0.02 -1.1e-4,-9.1e-4 -3.1e-4,-10e-4 -4.2e-4,-0.003 -0.43449,-2.38928 -0.9659,-4.74437 -1.56007,-7.07461 0.59344,2.33056 1.12558,4.68529 1.56007,7.07461 -0.43806,-2.42225 -0.97837,-4.80758 -1.58058,-7.16852 -0.24617,-0.96183 -0.53121,-1.90569 -0.80391,-2.85675 -0.4752,-1.66248 -0.98571,-3.30819 -1.54009,-4.93583 -0.30708,-0.89946 -0.61211,-1.79745 -0.94275,-2.68583 -0.76504,-2.05932 -1.59038,-4.08793 -2.47896,-6.08423 -0.16182,-0.36321 -0.29872,-0.73884 -0.46471,-1.09988 -1.0719,-2.33656 -2.24942,-4.61293 -3.48426,-6.85428 -0.37481,-0.68 -0.77249,-1.34333 -1.16168,-2.01413 -0.96266,-1.65942 -1.96714,-3.28905 -3.01611,-4.89001 -0.42429,-0.64745 -0.84125,-1.29782 -1.27933,-1.93535 -1.46181,-2.12808 -2.97365,-4.21926 -4.58341,-6.23202 1.60518,2.00701 3.11292,4.092 4.57047,6.2142 -1.45816,-2.12153 -2.96559,-4.20753 -4.57047,-6.2142 0,-0.003 0,-0.007 -0.0109,-0.008 -19.27856,-24.10117 -48.87572,-39.6061 -82.06748,-39.6061 z m 0,37.10058 c 37.50466,0 68.01748,30.51222 68.01748,68.01673 v 55.65019 H 305.98989 v -55.65019 c 0,-37.50451 30.51263,-68.01673 68.01745,-68.01673 z m 87.96674,10.73032 c 1.01488,1.55183 1.98804,3.13053 2.92172,4.73733 -0.93449,-1.6058 -1.90653,-3.18634 -2.92172,-4.73733 z m 4.18534,6.92995 c 1.19393,2.17321 2.3348,4.37905 3.37622,6.64153 -1.04284,-2.26138 -2.18108,-4.46932 -3.37622,-6.64153 z m 4.12524,8.40461 c 0.78014,1.77968 1.5207,3.57901 2.20331,5.40812 -0.68363,-1.82834 -1.42205,-3.62923 -2.20331,-5.40812 z m 3.27625,8.46516 c 0.50061,1.48015 0.96377,2.97542 1.39939,4.48405 -0.43623,-1.50798 -0.89807,-3.00461 -1.39939,-4.48405 z m -99.55357,163.33757 c 15.8707,0 28.97276,12.02512 30.70797,27.43985 0.12855,1.14301 0.2092,2.29996 0.2092,3.47677 0,10.09372 -4.86292,19.0708 -12.36713,24.71622 v 24.75092 c 0,10.24455 -8.30545,18.55007 -18.55004,18.55007 -10.24462,0 -18.55028,-8.30552 -18.55028,-18.55007 v -24.56931 -0.18161 c -7.5041,-5.64542 -12.36664,-14.6225 -12.36664,-24.71622 0,-17.04749 13.86921,-30.91662 30.91692,-30.91662 z" /></g></svg>
